<?xml version="1.0" encoding="UTF-8" standalone="no"?>
<!-- Created with Inkscape (http://www.inkscape.org/) -->

<svg
   xmlns:dc="http://purl.org/dc/elements/1.1/"
   xmlns:cc="http://creativecommons.org/ns#"
   xmlns:rdf="http://www.w3.org/1999/02/22-rdf-syntax-ns#"
   xmlns:svg="http://www.w3.org/2000/svg"
   xmlns="http://www.w3.org/2000/svg"
   xmlns:xlink="http://www.w3.org/1999/xlink"
   xmlns:sodipodi="http://sodipodi.sourceforge.net/DTD/sodipodi-0.dtd"
   xmlns:inkscape="http://www.inkscape.org/namespaces/inkscape"
   width="814.74017"
   height="334.74017"
   viewBox="0 0 215.56667 88.566673"
   version="1.1"
   id="svg3719"
   inkscape:version="0.92.3 (2405546, 2018-03-11)"
   sodipodi:docname="Logo.svg">
  <defs
     id="defs3713">
    <linearGradient
       inkscape:collect="always"
       id="linearGradient5036">
      <stop
         style="stop-color:#39adeb;stop-opacity:1;"
         offset="0"
         id="stop5032" />
      <stop
         style="stop-color:#39adeb;stop-opacity:0;"
         offset="1"
         id="stop5034" />
    </linearGradient>
    <linearGradient
       id="linearGradient4933"
       inkscape:collect="always">
      <stop
         id="stop4929"
         offset="0"
         style="stop-color:#143f58;stop-opacity:1" />
      <stop
         id="stop4931"
         offset="1"
         style="stop-color:#106a9a;stop-opacity:1" />
    </linearGradient>
    <linearGradient
       inkscape:collect="always"
       id="linearGradient4913">
      <stop
         style="stop-color:#236e99;stop-opacity:1"
         offset="0"
         id="stop4909" />
      <stop
         style="stop-color:#39adeb;stop-opacity:1"
         offset="1"
         id="stop4911" />
    </linearGradient>
    <linearGradient
       inkscape:collect="always"
       xlink:href="#linearGradient4913"
       id="linearGradient4917"
       x1="111.125"
       y1="315.52081"
       x2="111.125"
       y2="230.85414"
       gradientUnits="userSpaceOnUse" />
    <linearGradient
       inkscape:collect="always"
       xlink:href="#linearGradient4933"
       id="linearGradient4927"
       x1="89.958336"
       y1="230.85414"
       x2="89.958336"
       y2="315.52081"
       gradientUnits="userSpaceOnUse" />
    <linearGradient
       inkscape:collect="always"
       xlink:href="#linearGradient5036"
       id="linearGradient5038"
       x1="230"
       y1="230"
       x2="230"
       y2="50"
       gradientUnits="userSpaceOnUse"
       gradientTransform="matrix(0.26458333,0,0,0.26458333,0,207.04163)" />
    <linearGradient
       inkscape:collect="always"
       xlink:href="#linearGradient4913"
       id="linearGradient846"
       gradientUnits="userSpaceOnUse"
       x1="111.125"
       y1="315.52081"
       x2="111.125"
       y2="230.85414" />
    <linearGradient
       inkscape:collect="always"
       xlink:href="#linearGradient4933"
       id="linearGradient848"
       gradientUnits="userSpaceOnUse"
       x1="89.958336"
       y1="230.85414"
       x2="89.958336"
       y2="315.52081" />
    <linearGradient
       inkscape:collect="always"
       xlink:href="#linearGradient4913"
       id="linearGradient850"
       gradientUnits="userSpaceOnUse"
       x1="111.125"
       y1="315.52081"
       x2="111.125"
       y2="230.85414" />
    <linearGradient
       inkscape:collect="always"
       xlink:href="#linearGradient4933"
       id="linearGradient852"
       gradientUnits="userSpaceOnUse"
       x1="89.958336"
       y1="230.85414"
       x2="89.958336"
       y2="315.52081" />
    <linearGradient
       inkscape:collect="always"
       xlink:href="#linearGradient4913"
       id="linearGradient854"
       gradientUnits="userSpaceOnUse"
       x1="111.125"
       y1="315.52081"
       x2="111.125"
       y2="230.85414" />
    <linearGradient
       inkscape:collect="always"
       xlink:href="#linearGradient4933"
       id="linearGradient856"
       gradientUnits="userSpaceOnUse"
       x1="89.958336"
       y1="230.85414"
       x2="89.958336"
       y2="315.52081" />
    <linearGradient
       inkscape:collect="always"
       xlink:href="#linearGradient4913"
       id="linearGradient858"
       gradientUnits="userSpaceOnUse"
       x1="111.125"
       y1="315.52081"
       x2="111.125"
       y2="230.85414" />
    <linearGradient
       inkscape:collect="always"
       xlink:href="#linearGradient4933"
       id="linearGradient860"
       gradientUnits="userSpaceOnUse"
       x1="89.958336"
       y1="230.85414"
       x2="89.958336"
       y2="315.52081" />
    <linearGradient
       inkscape:collect="always"
       xlink:href="#linearGradient4913"
       id="linearGradient862"
       gradientUnits="userSpaceOnUse"
       x1="111.125"
       y1="315.52081"
       x2="111.125"
       y2="230.85414" />
    <linearGradient
       inkscape:collect="always"
       xlink:href="#linearGradient4933"
       id="linearGradient864"
       gradientUnits="userSpaceOnUse"
       x1="89.958336"
       y1="230.85414"
       x2="89.958336"
       y2="315.52081" />
    <linearGradient
       inkscape:collect="always"
       xlink:href="#linearGradient4913"
       id="linearGradient866"
       gradientUnits="userSpaceOnUse"
       x1="111.125"
       y1="315.52081"
       x2="111.125"
       y2="230.85414" />
    <linearGradient
       inkscape:collect="always"
       xlink:href="#linearGradient4933"
       id="linearGradient868"
       gradientUnits="userSpaceOnUse"
       x1="89.958336"
       y1="230.85414"
       x2="89.958336"
       y2="315.52081" />
    <linearGradient
       inkscape:collect="always"
       xlink:href="#linearGradient4913"
       id="linearGradient870"
       gradientUnits="userSpaceOnUse"
       x1="111.125"
       y1="315.52081"
       x2="111.125"
       y2="230.85414" />
    <linearGradient
       inkscape:collect="always"
       xlink:href="#linearGradient4933"
       id="linearGradient872"
       gradientUnits="userSpaceOnUse"
       x1="89.958336"
       y1="230.85414"
       x2="89.958336"
       y2="315.52081" />
    <linearGradient
       inkscape:collect="always"
       xlink:href="#linearGradient4913"
       id="linearGradient874"
       gradientUnits="userSpaceOnUse"
       x1="111.125"
       y1="315.52081"
       x2="111.125"
       y2="230.85414" />
    <linearGradient
       inkscape:collect="always"
       xlink:href="#linearGradient4933"
       id="linearGradient876"
       gradientUnits="userSpaceOnUse"
       x1="89.958336"
       y1="230.85414"
       x2="89.958336"
       y2="315.52081" />
    <linearGradient
       inkscape:collect="always"
       xlink:href="#linearGradient4913"
       id="linearGradient878"
       gradientUnits="userSpaceOnUse"
       x1="111.125"
       y1="315.52081"
       x2="111.125"
       y2="230.85414" />
    <linearGradient
       inkscape:collect="always"
       xlink:href="#linearGradient4933"
       id="linearGradient880"
       gradientUnits="userSpaceOnUse"
       x1="89.958336"
       y1="230.85414"
       x2="89.958336"
       y2="315.52081" />
    <linearGradient
       inkscape:collect="always"
       xlink:href="#linearGradient4913"
       id="linearGradient882"
       gradientUnits="userSpaceOnUse"
       x1="111.125"
       y1="315.52081"
       x2="111.125"
       y2="230.85414" />
    <linearGradient
       inkscape:collect="always"
       xlink:href="#linearGradient4933"
       id="linearGradient884"
       gradientUnits="userSpaceOnUse"
       x1="89.958336"
       y1="230.85414"
       x2="89.958336"
       y2="315.52081" />
    <linearGradient
       inkscape:collect="always"
       xlink:href="#linearGradient4913"
       id="linearGradient886"
       gradientUnits="userSpaceOnUse"
       x1="111.125"
       y1="315.52081"
       x2="111.125"
       y2="230.85414" />
    <linearGradient
       inkscape:collect="always"
       xlink:href="#linearGradient4933"
       id="linearGradient888"
       gradientUnits="userSpaceOnUse"
       x1="89.958336"
       y1="230.85414"
       x2="89.958336"
       y2="315.52081" />
  </defs>
  <sodipodi:namedview
     id="base"
     pagecolor="#ffffff"
     bordercolor="#666666"
     borderopacity="1.0"
     inkscape:pageopacity="0.0"
     inkscape:pageshadow="2"
     inkscape:zoom="1"
     inkscape:cx="508.05309"
     inkscape:cy="133.88"
     inkscape:document-units="mm"
     inkscape:current-layer="layer1"
     showgrid="true"
     showguides="true"
     showborder="true"
     inkscape:pagecheckerboard="true"
     units="px"
     inkscape:showpageshadow="false"
     inkscape:window-width="1920"
     inkscape:window-height="1017"
     inkscape:window-x="-8"
     inkscape:window-y="-8"
     inkscape:window-maximized="1"
     fit-margin-top="0"
     fit-margin-left="0"
     fit-margin-right="0"
     fit-margin-bottom="0">
    <inkscape:grid
       type="xygrid"
       id="grid3721"
       originx="-0.69583365"
       originy="9.8874973" />
  </sodipodi:namedview>
  <metadata
     id="metadata3716">
    <rdf:RDF>
      <cc:Work
         rdf:about="">
        <dc:format>image/svg+xml</dc:format>
        <dc:type
           rdf:resource="http://purl.org/dc/dcmitype/StillImage" />
        <dc:title></dc:title>
      </cc:Work>
    </rdf:RDF>
  </metadata>
  <g
     inkscape:label="Layer 1"
     inkscape:groupmode="layer"
     id="layer1"
     transform="translate(-0.69583365,-218.3208)">
    <g
       id="g4907"
       style="fill:url(#linearGradient4917);fill-opacity:1;stroke:url(#linearGradient4927);stroke-width:3.9000001;stroke-miterlimit:4;stroke-dasharray:none;paint-order:markers stroke fill"
       transform="translate(0,-10.583333)">
      <path
         inkscape:connector-curvature="0"
         id="rect4565"
         d="m 2.6458337,230.85413 v 10.58334 10.58333 10.58333 10.58334 10.58333 10.58333 H 13.229167 V 283.7708 273.18747 262.60413 h 5.291667 a 15.874999,15.874999 0 0 0 15.875,-15.875 15.874999,15.874999 0 0 0 -15.875,-15.875 h -5.291667 z m 10.5833333,10.58334 h 5.291667 v 0.11369 a 5.1779746,5.1779746 0 0 1 5.177978,5.17797 5.1779746,5.1779746 0 0 1 -5.177978,5.17798 v 0.11369 h -5.291667 z"
         style="fill:url(#linearGradient846);fill-opacity:1;stroke:url(#linearGradient848);stroke-width:3.9000001;stroke-miterlimit:4;stroke-dasharray:none;stroke-opacity:1;paint-order:markers stroke fill" />
      <path
         inkscape:connector-curvature="0"
         style="fill:url(#linearGradient850);fill-opacity:1;stroke:url(#linearGradient852);stroke-width:3.9000001;stroke-miterlimit:4;stroke-dasharray:none;stroke-opacity:1;paint-order:markers stroke fill"
         d="m 47.625,262.60413 a 10.583332,10.583332 0 0 0 -10.583333,10.58334 v 10.58333 10.58333 H 47.625 55.5625 63.499994 V 283.7708 273.18747 262.60413 h -5.291657 -5.29167 z m 0,10.58334 h 5.291667 V 283.7708 H 47.625 Z"
         id="path4637" />
      <path
         inkscape:connector-curvature="0"
         id="path4650"
         d="M 26.458333,262.60414 A 10.583332,10.583332 0 0 0 15.875,273.18747 v 10.58333 10.58334 h 10.583333 7.9375 V 283.7708 273.18747 a 13.229166,13.229166 0 0 1 5.314405,-10.58333 h -2.668572 -5.291667 z m 0,10.58333 h 5.291666 v 10.58333 h -5.291666 z"
         style="fill:url(#linearGradient854);fill-opacity:1;stroke:url(#linearGradient856);stroke-width:3.9000001;stroke-miterlimit:4;stroke-dasharray:none;stroke-opacity:1;paint-order:markers stroke fill" />
      <path
         inkscape:connector-curvature="0"
         id="rect4664"
         d="m 44.979166,249.37497 v 2.64583 l 2.480469,7.9375 h 10.087239 l -1.984375,-7.9375 v -2.64583 z m 26.458333,0 v 2.64583 l -5.291667,21.16667 v 21.16667 h 2.645834 L 82.020832,252.0208 v -2.64583 z"
         style="fill:url(#linearGradient858);fill-opacity:1;stroke:url(#linearGradient860);stroke-width:3.9000001;stroke-miterlimit:4;stroke-dasharray:none;stroke-opacity:1;paint-order:markers stroke fill" />
      <path
         inkscape:connector-curvature="0"
         id="rect4701"
         d="m 82.020832,262.60414 -9.684162,29.053 a 10.583333,10.583333 0 0 0 7.038329,2.697 h 5.291666 A 10.583333,10.583333 0 0 0 95.249999,283.7708 V 273.18747 A 10.583333,10.583333 0 0 0 84.666665,262.60414 Z m -2.645833,10.58333 h 5.291666 v 10.58333 h -5.291666 z"
         style="fill:url(#linearGradient862);fill-opacity:1;stroke:url(#linearGradient864);stroke-width:3.9000001;stroke-miterlimit:4;stroke-dasharray:none;stroke-opacity:1;paint-order:markers stroke fill" />
      <path
         inkscape:connector-curvature="0"
         id="rect4735"
         d="m 92.581427,262.60414 a 13.229166,13.229166 0 0 1 5.314405,10.58333 v 10.58333 a 13.229166,13.229166 0 0 1 -5.318538,10.58334 h 7.964376 V 283.7708 273.18747 h 5.29166 v 10.58333 10.58334 h 10.58334 V 283.7708 273.18747 a 10.583333,10.583333 0 0 0 -10.58334,-10.58333 h -5.29166 z"
         style="fill:url(#linearGradient866);fill-opacity:1;stroke:url(#linearGradient868);stroke-width:3.9000001;stroke-miterlimit:4;stroke-dasharray:none;stroke-opacity:1;paint-order:markers stroke fill" />
      <path
         style="fill:url(#linearGradient870);fill-opacity:1;stroke:url(#linearGradient872);stroke-width:3.9000001;stroke-miterlimit:4;stroke-dasharray:none;stroke-opacity:1;paint-order:markers stroke fill"
         d="m 127,230.85414 v 10.58333 10.58334 10.58333 10.58333 10.58334 10.58333 h 10.58333 5.29167 a 10.583333,10.583333 0 0 0 10.58333,-10.58333 V 273.18747 A 10.583333,10.583333 0 0 0 142.875,262.60414 h -5.29167 v -10.58333 -10.58334 -10.58333 z m 10.58333,42.33333 h 5.29167 v 10.58334 h -5.29167 z"
         id="path4837"
         inkscape:connector-curvature="0" />
      <path
         inkscape:connector-curvature="0"
         id="path4839"
         d="m 142.875,241.43747 v 10.58333 h 5.29167 v 9.0594 a 13.229165,13.229165 0 0 1 7.9375,12.10727 v 10.58333 a 13.229165,13.229165 0 0 1 -5.31854,10.58334 h 7.96437 5.29167 V 283.7708 H 158.75 V 273.18747 262.60414 252.0208 241.43747 h -10.58333 z"
         style="fill:url(#linearGradient874);fill-opacity:1;stroke:url(#linearGradient876);stroke-width:3.9000001;stroke-miterlimit:4;stroke-dasharray:none;stroke-opacity:1;paint-order:markers stroke fill" />
      <path
         inkscape:connector-curvature="0"
         id="path4841"
         d="m 164.04167,262.60414 a 10.583333,10.583333 0 0 0 -2.64583,0.34985 v 4.94181 13.22917 h 2.64583 v -7.9375 h 5.29167 v 10.58333 h -2.64584 v 10.58334 h 2.64584 a 10.583333,10.583333 0 0 0 0.63303,-0.0315 10.583333,10.583333 0 0 0 0.60617,-0.0486 10.583333,10.583333 0 0 0 0.37569,-0.0568 10.583333,10.583333 0 0 0 0.68833,-0.12505 10.583333,10.583333 0 0 0 0.2992,-0.0765 10.583333,10.583333 0 0 0 0.74311,-0.21394 10.583333,10.583333 0 0 0 0.21084,-0.077 10.583333,10.583333 0 0 0 0.79633,-0.31781 10.583333,10.583333 0 0 0 0.12609,-0.061 10.583333,10.583333 0 0 0 0.84233,-0.43873 10.583333,10.583333 0 0 0 0.031,-0.0191 10.583333,10.583333 0 0 0 5.2312,-9.11727 v -10.58333 a 10.583333,10.583333 0 0 0 -10.58333,-10.58333 h -2.64584 z"
         style="fill:url(#linearGradient878);fill-opacity:1;stroke:url(#linearGradient880);stroke-width:3.9000001;stroke-miterlimit:4;stroke-dasharray:none;stroke-opacity:1;paint-order:markers stroke fill" />
      <path
         inkscape:connector-curvature="0"
         id="path4843"
         d="m 185.20834,262.60414 a 10.583333,10.583333 0 0 0 -5.96243,1.84019 13.229165,13.229165 0 0 1 3.31659,8.74314 v 10.58333 a 13.229165,13.229165 0 0 1 -3.30677,8.72453 10.583333,10.583333 0 0 0 0.60048,0.39274 10.583333,10.583333 0 0 0 0.031,0.0191 10.583333,10.583333 0 0 0 0.84232,0.43873 10.583333,10.583333 0 0 0 0.12609,0.061 10.583333,10.583333 0 0 0 0.79633,0.31781 10.583333,10.583333 0 0 0 0.21085,0.077 10.583333,10.583333 0 0 0 0.7431,0.21394 10.583333,10.583333 0 0 0 0.29921,0.0765 10.583333,10.583333 0 0 0 0.68833,0.12505 10.583333,10.583333 0 0 0 0.37569,0.0568 10.583333,10.583333 0 0 0 0.60616,0.0486 10.583333,10.583333 0 0 0 0.63304,0.0315 H 190.5 v 10.58333 h -5.29166 V 299.6458 H 174.625 v 5.29167 a 10.583333,10.583333 0 0 0 10.58334,10.58333 H 190.5 a 10.583333,10.583333 0 0 0 10.58334,-10.58333 V 294.35414 283.7708 273.18747 A 10.583333,10.583333 0 0 0 190.5,262.60414 h -2.64583 z m 0,10.58333 H 190.5 v 10.58333 h -5.29166 z"
         style="fill:url(#linearGradient882);fill-opacity:1;stroke:url(#linearGradient884);stroke-width:3.9000001;stroke-miterlimit:4;stroke-dasharray:none;stroke-opacity:1;paint-order:markers stroke fill" />
      <path
         inkscape:connector-curvature="0"
         id="path4845"
         d="m 198.4375,249.37497 v 10.58333 h 10.58334 v -10.58333 z m 2.62568,15.875 a 13.229165,13.229165 0 0 1 2.66599,7.9375 v 13.22917 10.58333 h 5.29167 5.29166 v -10.58333 h -5.29166 v -21.16667 z"
         style="fill:url(#linearGradient886);fill-opacity:1;stroke:url(#linearGradient888);stroke-width:3.9000001;stroke-miterlimit:4;stroke-dasharray:none;stroke-opacity:1;paint-order:markers stroke fill" />
    </g>
    <path
       style="fill:url(#linearGradient5038);fill-opacity:1;stroke:none;stroke-width:3.9000001;stroke-miterlimit:4;stroke-dasharray:none;stroke-opacity:1;paint-order:markers stroke fill"
       d="m 2.6458333,220.2708 v 10.58333 10.58334 10.58333 10.58333 5.29167 H 13.229167 v -5.29167 -10.58333 h 5.291666 a 15.874998,15.874998 0 0 0 15.875,-15.875 15.874998,15.874998 0 0 0 -15.875,-15.875 H 13.229167 Z M 127,220.2708 v 10.58333 10.58334 10.58333 10.58333 5.29167 h 10.58333 v -5.29167 h 5.29167 v 5.29167 h 10.58333 v -5.29167 A 10.583333,10.583333 0 0 0 142.875,252.0208 h -5.29167 V 241.43747 230.85413 220.2708 Z M 13.229167,230.85413 h 5.291666 v 0.11369 a 5.1779746,5.1779746 0 0 1 5.177978,5.17798 5.1779746,5.1779746 0 0 1 -5.177978,5.17798 v 0.11369 h -5.291666 z m 129.645833,0 v 10.58334 h 5.29166 v 9.05939 a 13.229165,13.229165 0 0 1 7.9375,12.10727 v 5.29167 H 158.75 v -5.29167 -10.58333 -10.58333 -10.58334 h -10.58334 z m -97.895834,7.9375 v 2.64584 l 2.480469,7.9375 h 10.087239 l -1.984375,-7.9375 v -2.64584 z m 26.458333,0 v 2.64584 l -5.291667,21.16666 v 5.29167 h 7.606771 l 8.268229,-26.45833 v -2.64584 z m 127.000001,0 v 10.58334 h 10.58333 V 238.79163 Z M 26.458333,252.0208 A 10.583332,10.583332 0 0 0 15.875,262.60413 v 5.29167 h 10.583333 v -5.29167 H 31.75 v 5.29167 h 2.645833 v -5.29167 A 13.229165,13.229165 0 0 1 39.710238,252.0208 H 37.041666 31.75 Z m 21.166666,0 a 10.583332,10.583332 0 0 0 -10.583333,10.58333 v 5.29167 h 10.583333 v -5.29167 h 5.291667 v 5.29167 h 10.583333 v -5.29167 -10.58333 h -5.291666 -5.291667 z m 34.395833,0 -5.291666,15.875 h 2.645833 v -5.29167 h 5.291667 v 5.29167 h 10.583333 v -5.29167 A 10.583333,10.583333 0 0 0 84.666666,252.0208 Z m 10.560595,0 a 13.229165,13.229165 0 0 1 5.314405,10.58333 v 5.29167 h 2.645838 v -5.29167 h 5.29166 v 5.29167 h 10.58334 v -5.29167 A 10.583333,10.583333 0 0 0 105.83333,252.0208 h -5.29166 z m 71.460233,0 a 10.583333,10.583333 0 0 0 -2.64583,0.34985 v 4.94182 10.58333 h 2.64583 v -5.29167 h 5.29167 v 5.29167 h 10.58333 v -5.29167 A 10.583333,10.583333 0 0 0 169.33333,252.0208 h -2.64583 z m 21.16667,0 a 10.583333,10.583333 0 0 0 -5.96243,1.8402 13.229165,13.229165 0 0 1 3.3166,8.74313 v 5.29167 h 2.64583 v -5.29167 H 190.5 v 5.29167 h 10.58333 v -5.29167 A 10.583333,10.583333 0 0 0 190.5,252.0208 h -2.64584 z m 15.85485,2.64583 a 13.229165,13.229165 0 0 1 2.66598,7.9375 v 5.29167 h 5.29167 v -13.22917 z"
       id="rect4937"
       inkscape:connector-curvature="0" />
  </g>
</svg>
